<?xml version="1.0" encoding="UTF-8" standalone="no"?>
<svg width="420px" height="1160px" viewBox="0 0 420 1160" version="1.1" xmlns="http://www.w3.org/2000/svg" xmlns:xlink="http://www.w3.org/1999/xlink" xmlns:sketch="http://www.bohemiancoding.com/sketch/ns">
    <!-- Generator: Sketch 3.0.4 (8053) - http://www.bohemiancoding.com/sketch -->
    <title>sprite</title>
    <desc>Created with Sketch.</desc>
    <defs>
        <filter x="-50%" y="-50%" width="200%" height="200%" filterUnits="objectBoundingBox" id="filter-1">
            <feMorphology radius="2" in="SourceAlpha" operator="dilate" result="shadowSpreadInner1"></feMorphology>
            <feOffset dx="0" dy="1" in="shadowSpreadInner1" result="shadowOffsetInner1"></feOffset>
            <feGaussianBlur stdDeviation="1.5" in="shadowOffsetInner1" result="shadowBlurInner1"></feGaussianBlur>
            <feComposite in="shadowBlurInner1" in2="SourceAlpha" operator="arithmetic" k2="-1" k3="1" result="shadowInnerInner1"></feComposite>
            <feColorMatrix values="0 0 0 0 0   0 0 0 0 0   0 0 0 0 0  0 0 0 0.105 0" in="shadowInnerInner1" type="matrix" result="shadowMatrixInner1"></feColorMatrix>
            <feMerge>
                <feMergeNode in="SourceGraphic"></feMergeNode>
                <feMergeNode in="shadowMatrixInner1"></feMergeNode>
            </feMerge>
        </filter>
        <filter x="-50%" y="-50%" width="200%" height="200%" filterUnits="objectBoundingBox" id="filter-2">
            <feMorphology radius="2" in="SourceAlpha" operator="dilate" result="shadowSpreadInner1"></feMorphology>
            <feOffset dx="0" dy="1" in="shadowSpreadInner1" result="shadowOffsetInner1"></feOffset>
            <feGaussianBlur stdDeviation="1.5" in="shadowOffsetInner1" result="shadowBlurInner1"></feGaussianBlur>
            <feComposite in="shadowBlurInner1" in2="SourceAlpha" operator="arithmetic" k2="-1" k3="1" result="shadowInnerInner1"></feComposite>
            <feColorMatrix values="0 0 0 0 0   0 0 0 0 0   0 0 0 0 0  0 0 0 0.105 0" in="shadowInnerInner1" type="matrix" result="shadowMatrixInner1"></feColorMatrix>
            <feMerge>
                <feMergeNode in="SourceGraphic"></feMergeNode>
                <feMergeNode in="shadowMatrixInner1"></feMergeNode>
            </feMerge>
        </filter>
        <filter x="-50%" y="-50%" width="200%" height="200%" filterUnits="objectBoundingBox" id="filter-3">
            <feMorphology radius="2" in="SourceAlpha" operator="dilate" result="shadowSpreadInner1"></feMorphology>
            <feOffset dx="0" dy="1" in="shadowSpreadInner1" result="shadowOffsetInner1"></feOffset>
            <feGaussianBlur stdDeviation="1.5" in="shadowOffsetInner1" result="shadowBlurInner1"></feGaussianBlur>
            <feComposite in="shadowBlurInner1" in2="SourceAlpha" operator="arithmetic" k2="-1" k3="1" result="shadowInnerInner1"></feComposite>
            <feColorMatrix values="0 0 0 0 0   0 0 0 0 0   0 0 0 0 0  0 0 0 0.105 0" in="shadowInnerInner1" type="matrix" result="shadowMatrixInner1"></feColorMatrix>
            <feMerge>
                <feMergeNode in="SourceGraphic"></feMergeNode>
                <feMergeNode in="shadowMatrixInner1"></feMergeNode>
            </feMerge>
        </filter>
        <filter x="-50%" y="-50%" width="200%" height="200%" filterUnits="objectBoundingBox" id="filter-4">
            <feMorphology radius="2" in="SourceAlpha" operator="dilate" result="shadowSpreadInner1"></feMorphology>
            <feOffset dx="0" dy="1" in="shadowSpreadInner1" result="shadowOffsetInner1"></feOffset>
            <feGaussianBlur stdDeviation="1.5" in="shadowOffsetInner1" result="shadowBlurInner1"></feGaussianBlur>
            <feComposite in="shadowBlurInner1" in2="SourceAlpha" operator="arithmetic" k2="-1" k3="1" result="shadowInnerInner1"></feComposite>
            <feColorMatrix values="0 0 0 0 0   0 0 0 0 0   0 0 0 0 0  0 0 0 0.105 0" in="shadowInnerInner1" type="matrix" result="shadowMatrixInner1"></feColorMatrix>
            <feMerge>
                <feMergeNode in="SourceGraphic"></feMergeNode>
                <feMergeNode in="shadowMatrixInner1"></feMergeNode>
            </feMerge>
        </filter>
    </defs>
    <g id="Sprite" stroke="none" stroke-width="1" fill="none" fill-rule="evenodd" sketch:type="MSPage">
        <g id="Slices" sketch:type="MSLayerGroup" transform="translate(-341.000000, -40.000000)"></g>
        <rect id="base" sketch:type="MSShapeGroup" x="-341" y="-40" width="801" height="1698"></rect>
        <g id="logo" sketch:type="MSLayerGroup" transform="translate(1.000000, 1.000000)">
            <path d="M134.22,28.54 C132.25,28.2 130.34,29.87 129.97,32.03 C129.6,34.19 130.89,36.219 132.87,36.56 C134.84,36.9 136.74,35.43 137.11,33.27 C137.48,31.11 136.19,28.89 134.22,28.54 L134.22,28.54 Z" id="Shape" fill="#E64E00" sketch:type="MSShapeGroup"></path>
            <path d="M21.01,0.5 C20,0.25 19.45,0.16 19.19,0.16 C18.61,0.16 18.08,0.63 18.08,1.23 L18.08,15.72 C14.91,15.63 12.09,15.75 8.93,16.2 L8.92,1.62 C8.92,1.22 8.47,0.92 6.77,0.5 C5.76,0.25 5.21,0.16 4.95,0.16 C4.37,0.16 3.84,0.63 3.84,1.23 L3.84,17.19 C3.49,17.28 1.87,17.63 0.97,17.92 C0.06,18.22 -0.07,18.89 0.23,19.81 C0.72,21.31 2.36,23.09 3.33,22.68 C3.57,22.58 3.84,22.51 3.84,22.51 L3.861,29.16 L3.861,35.3 C3.861,35.7 4.01,36 5.711,36.42 C6.711,36.67 7.571,36.76 7.831,36.76 C8.411,36.76 8.931,36.29 8.931,35.69 L8.931,20.99 C12.742,20.11 15.681,19.87 18.081,19.69 L18.081,35.3 C18.081,35.71 18.231,36 19.931,36.42 C20.941,36.67 21.801,36.76 22.061,36.76 C22.641,36.76 23.161,36.29 23.161,35.69 L23.161,1.62 C23.16,1.22 22.71,0.92 21.01,0.5 L21.01,0.5 Z M34.97,33.53 C28.14,33.4 30,16.63 35.13,16.05 C40.87,15.4 41.67,33.66 34.97,33.53 L34.97,33.53 Z M33.95,12.2 C23.69,12.07 22.06,34.8 32.41,36.47 C45.3,38.55 46.3,12.35 33.95,12.2 L33.95,12.2 Z M74.31,33.54 C67.48,33.42 69.02,15.99 74.47,16.06 C77.09,16.09 78.34,19.88 78.38,24.47 C78.42,28.97 77.55,33.6 74.31,33.54 L74.31,33.54 Z M99.28,12.22 C95.139,12.89 93.36,18.66 93.36,19.43 L93.36,14.41 C93.36,14 92.92,13.71 91.22,13.28 C90.21,13.03 89.66,12.94 89.39,12.94 C88.821,12.94 88.281,13.42 88.281,14.01 L88.281,25.99 L88.231,26.58 C87.921,30.02 87.611,33.45 85.371,33.45 C82.411,33.45 83.301,27.21 83.341,24.53 C83.461,16.23 83.651,14.39 83.651,14.37 C83.651,13.96 83.201,13.67 81.501,13.24 C80.491,12.99 79.941,12.9 79.681,12.9 C79.101,12.9 78.561,13.38 78.561,13.97 L78.561,14.781 C77.261,13.22 75.501,12.231 73.291,12.201 C66.201,12.111 63.231,23.081 65.491,30.321 C65.161,32.241 64.47,33.671 62.651,33.521 C59.801,33.151 59.961,27.101 59.961,24.421 C59.961,14.331 60.261,1.641 60.261,1.621 C60.261,1.221 59.811,0.921 58.112,0.501 C57.102,0.251 56.551,0.161 56.292,0.161 C55.712,0.161 55.182,0.631 55.182,1.231 L55.182,23.261 C55.113,25.451 55.212,27.291 55.432,28.841 C54.972,31.481 54.002,33.661 52.082,33.521 C49.232,33.151 49.382,27.101 49.382,24.421 C49.382,14.331 49.692,1.641 49.692,1.621 C49.692,1.221 49.242,0.921 47.542,0.501 C46.532,0.251 45.982,0.161 45.722,0.161 C45.142,0.161 44.602,0.631 44.602,1.231 L44.602,23.561 C44.272,34.291 47.962,36.281 50.132,36.551 C51.212,36.691 54.972,36.362 56.182,32.041 C57.372,35.441 59.342,36.441 60.712,36.571 C61.592,36.651 65.112,36.381 66.522,32.72 C67.682,34.73 69.402,36.16 71.752,36.48 C75.172,36.94 77.692,35.26 79.302,32.59 C80.132,35.44 81.552,36.25 83.052,36.55 C84.172,36.78 86.752,36.571 88.282,34.06 L88.282,35.29 C88.282,35.7 88.442,35.99 90.141,36.42 C91.151,36.67 92.001,36.76 92.261,36.76 C92.841,36.76 93.361,36.281 93.361,35.69 L93.361,29.55 C93.361,26.95 95.011,17.361 99.071,17.071 C99.331,17.05 99.901,17.101 100.3,17.241 C103.51,18.35 103.45,11.55 99.28,12.22 L99.28,12.22 Z M111.82,33.54 C104.99,33.54 106.53,15.99 111.98,16.06 C114.29,16.09 115.69,19.03 115.82,22.89 C116.04,29.14 115.1,33.54 111.82,33.54 L111.82,33.54 Z M126.86,30.27 C126.46,30.14 126.08,30.4 126.02,30.63 C125.5,32.56 124.85,33.64 123.3,33.52 C120.45,33.15 120.6,27.1 120.6,24.42 C120.6,14.33 120.91,2.1 120.91,1.62 C120.91,1.22 120.46,0.92 118.76,0.5 C117.75,0.25 117.2,0.16 116.94,0.16 C116.36,0.16 115.82,0.63 115.82,1.23 L115.82,14.51 C114.549,13.111 112.88,12.23 110.799,12.2 C100.539,12.07 98.919,35.05 109.259,36.48 C112.769,36.96 115.339,35.11 116.929,32.24 C118.139,35.39 120.049,36.3 121.359,36.57 C122.289,36.759 125.429,36.44 126.939,33.259 C127.48,32.13 127.77,30.56 126.86,30.27 L126.86,30.27 Z" id="Shape" fill="#FFFFFF" sketch:type="MSShapeGroup"></path>
        </g>
        <g id="logo--investments" sketch:type="MSLayerGroup" transform="translate(161.000000, 1.000000)">
            <path d="M82.82,55.78 C84.02,55.78 84.58,55.16 84.58,54.36 C84.58,53.4 83.7,53.14 82.41,52.95 C80.87,52.74 79.44,52.17 79.44,50.44 L79.44,50.18 C79.44,48.701 80.5,47.611 82.67,47.611 C84.89,47.611 85.93,48.991 85.93,50.26 C85.93,50.49 85.79,50.65 85.56,50.65 L84.81,50.65 C84.58,50.65 84.41,50.51 84.41,50.28 C84.41,49.7 83.96,48.92 82.67,48.92 C81.51,48.92 81.03,49.5 81.03,50.3 C81.03,51.27 81.84,51.54 83.09,51.72 C84.62,51.95 86.16,52.4 86.16,54.15 L86.16,54.47 C86.16,55.92 84.99,57.09 82.82,57.09 C80.61,57.09 79.28,55.84 79.28,54.42 C79.28,54.19 79.44,54.03 79.67,54.03 L80.45,54.03 C80.679,54.03 80.84,54.179 80.84,54.4 C80.84,55.02 81.51,55.78 82.82,55.78 L82.82,55.78 Z" id="Shape" fill="#FFFFFF" sketch:type="MSShapeGroup"></path>
            <path d="M88.02,53.98 L88.02,49.12 L87.47,49.12 C87.25,49.12 87.06,48.94 87.06,48.71 L87.06,48.23 C87.06,48 87.25,47.82 87.47,47.82 L88.05,47.82 L88.2,45.96 C88.21,45.74 88.41,45.56 88.63,45.56 L89.21,45.56 C89.44,45.56 89.61,45.74 89.61,45.96 L89.61,47.82 L91.8,47.82 C92.02,47.82 92.22,48 92.22,48.23 L92.22,48.71 C92.22,48.94 92.02,49.12 91.8,49.12 L89.61,49.12 L89.61,53.89 C89.61,55.16 90.13,55.76 91.25,55.76 C91.51,55.76 91.8,55.75 92.09,55.7 C92.3,55.67 92.47,55.8 92.47,56.02 L92.47,56.51 C92.47,56.72 92.281,56.94 92.06,56.98 C91.73,57.04 91.38,57.09 91.09,57.09 C89.05,57.09 88.02,56.07 88.02,53.98 L88.02,53.98 Z" id="Shape" fill="#FFFFFF" sketch:type="MSShapeGroup"></path>
            <path d="M116.58,56.88 C116.35,56.88 116.17,56.7 116.17,56.47 L116.17,48.23 C116.17,48 116.35,47.82 116.58,47.82 L117.17,47.82 C117.41,47.82 117.6,48 117.64,48.23 L117.68,48.74 C118.31,48.1 119.13,47.66 120.05,47.66 C122.09,47.66 122.97,48.71 122.97,50.72 L122.97,56.47 C122.97,56.7 122.8,56.88 122.571,56.88 L121.781,56.88 C121.561,56.88 121.381,56.7 121.381,56.47 L121.381,50.93 C121.381,49.62 120.981,49.04 119.771,49.04 C118.971,49.04 118.231,49.57 117.761,50.14 L117.761,56.47 C117.761,56.7 117.591,56.88 117.361,56.88 L116.58,56.88 L116.58,56.88 Z" id="Shape" fill="#FFFFFF" sketch:type="MSShapeGroup"></path>
            <path d="M108.7,51.17 L108.7,51.49 L112.53,51.48 L112.53,51.15 C112.53,49.75 111.85,49 110.61,49 C109.39,49 108.7,49.73 108.7,51.17 L108.7,51.17 Z M110.61,57.04 C108.46,57.04 107.11,55.78 107.11,53.69 L107.11,51.01 C107.11,48.92 108.46,47.66 110.61,47.66 C112.78,47.66 114.12,48.92 114.12,51.01 L114.12,52.27 C114.12,52.48 113.94,52.67 113.72,52.67 L108.7,52.67 L108.7,53.56 C108.7,55 109.389,55.7 110.61,55.7 C112,55.7 112.49,54.84 112.49,54.26 C112.49,54.02 112.62,53.89 112.86,53.89 L113.7,53.89 C113.92,53.89 114.07,54.05 114.07,54.29 C114.07,55.55 112.83,57.04 110.61,57.04 L110.61,57.04 Z" id="Shape" fill="#FFFFFF" sketch:type="MSShapeGroup"></path>
            <path d="M94.16,56.88 C93.93,56.88 93.76,56.7 93.76,56.47 L93.76,48.23 C93.76,48 93.93,47.82 94.16,47.82 L94.75,47.82 C95,47.82 95.19,48 95.22,48.23 L95.27,48.74 C95.9,48.1 96.6,47.66 97.5,47.66 C98.77,47.66 99.51,48.13 99.91,48.94 C100.54,48.21 101.31,47.66 102.32,47.66 C104.36,47.66 105.06,48.71 105.06,50.72 L105.06,56.47 C105.06,56.7 104.88,56.88 104.65,56.88 L103.87,56.88 C103.64,56.88 103.46,56.7 103.46,56.47 L103.46,50.93 C103.46,49.62 103.22,49.04 102.03,49.04 C101.259,49.04 100.639,49.54 100.19,50.07 C100.22,50.33 100.25,50.59 100.25,50.88 L100.25,56.47 C100.25,56.7 100.06,56.88 99.83,56.88 L99.06,56.88 C98.84,56.88 98.66,56.7 98.66,56.47 L98.66,51.04 C98.66,49.73 98.42,49.04 97.23,49.04 C96.43,49.04 95.78,49.57 95.35,50.14 L95.35,56.47 C95.35,56.7 95.17,56.88 94.95,56.88 L94.16,56.88 L94.16,56.88 Z" id="Shape" fill="#FFFFFF" sketch:type="MSShapeGroup"></path>
            <path d="M125.16,53.98 L125.16,49.12 L124.61,49.12 C124.38,49.12 124.19,48.94 124.19,48.71 L124.19,48.23 C124.19,48 124.38,47.82 124.61,47.82 L125.19,47.82 L125.33,45.96 C125.35,45.74 125.54,45.56 125.77,45.56 L126.35,45.56 C126.57,45.56 126.75,45.74 126.75,45.96 L126.75,47.82 L128.93,47.82 C129.16,47.82 129.35,48 129.35,48.23 L129.35,48.71 C129.35,48.94 129.16,49.12 128.93,49.12 L126.75,49.12 L126.75,53.89 C126.75,55.16 127.26,55.76 128.39,55.76 C128.64,55.76 128.93,55.75 129.22,55.7 C129.43,55.67 129.61,55.8 129.61,56.02 L129.61,56.51 C129.61,56.72 129.41,56.94 129.19,56.98 C128.87,57.04 128.51,57.09 128.23,57.09 C126.18,57.09 125.16,56.07 125.16,53.98 L125.16,53.98 Z" id="Shape" fill="#FFFFFF" sketch:type="MSShapeGroup"></path>
            <path d="M134.07,55.78 C135.28,55.78 135.84,55.16 135.84,54.36 C135.84,53.4 134.96,53.14 133.67,52.95 C132.13,52.74 130.7,52.17 130.7,50.44 L130.7,50.18 C130.7,48.701 131.76,47.611 133.929,47.611 C136.149,47.611 137.189,48.991 137.189,50.26 C137.189,50.49 137.049,50.65 136.819,50.65 L136.069,50.65 C135.839,50.65 135.669,50.51 135.669,50.28 C135.669,49.7 135.219,48.92 133.929,48.92 C132.769,48.92 132.289,49.5 132.289,50.3 C132.289,51.27 133.089,51.54 134.349,51.72 C135.869,51.95 137.419,52.4 137.419,54.15 L137.419,54.47 C137.419,55.92 136.239,57.09 134.069,57.09 C131.869,57.09 130.539,55.84 130.539,54.42 C130.539,54.19 130.699,54.03 130.919,54.03 L131.709,54.03 C131.939,54.03 132.099,54.179 132.099,54.4 C132.1,55.02 132.77,55.78 134.07,55.78 L134.07,55.78 Z" id="Shape" fill="#FFFFFF" sketch:type="MSShapeGroup"></path>
            <path d="M72.16,51.17 L72.16,51.49 L75.99,51.48 L75.99,51.15 C75.99,49.75 75.31,49 74.07,49 C72.85,49 72.16,49.73 72.16,51.17 L72.16,51.17 Z M74.07,57.04 C71.92,57.04 70.57,55.78 70.57,53.69 L70.57,51.01 C70.57,48.92 71.92,47.66 74.07,47.66 C76.24,47.66 77.58,48.92 77.58,51.01 L77.58,52.27 C77.58,52.48 77.4,52.67 77.18,52.67 L72.16,52.67 L72.16,53.56 C72.16,55 72.85,55.7 74.07,55.7 C75.46,55.7 75.95,54.84 75.95,54.26 C75.95,54.02 76.08,53.89 76.32,53.89 L77.16,53.89 C77.38,53.89 77.53,54.05 77.53,54.29 C77.53,55.55 76.29,57.04 74.07,57.04 L74.07,57.04 Z" id="Shape" fill="#FFFFFF" sketch:type="MSShapeGroup"></path>
            <path d="M65.56,56.88 C65.32,56.88 65.09,56.72 65.01,56.49 L62.13,48.21 C62.05,48.02 62.2,47.82 62.41,47.82 L63.31,47.82 C63.55,47.82 63.76,47.98 63.82,48.21 L65.96,55.02 L68.08,48.21 C68.14,47.98 68.37,47.82 68.61,47.82 L69.46,47.82 C69.67,47.82 69.8,48.02 69.74,48.21 L66.84,56.49 C66.78,56.719 66.55,56.88 66.31,56.88 L65.56,56.88 L65.56,56.88 Z" id="Shape" fill="#FFFFFF" sketch:type="MSShapeGroup"></path>
            <path d="M54.68,56.88 C54.451,56.88 54.281,56.7 54.281,56.47 L54.281,48.23 C54.281,48 54.451,47.82 54.68,47.82 L55.27,47.82 C55.51,47.82 55.71,48 55.74,48.23 L55.79,48.74 C56.41,48.1 57.23,47.66 58.15,47.66 C60.19,47.66 61.07,48.71 61.07,50.72 L61.07,56.47 C61.07,56.7 60.9,56.88 60.67,56.88 L59.89,56.88 C59.661,56.88 59.48,56.7 59.48,56.47 L59.48,50.93 C59.48,49.62 59.08,49.04 57.88,49.04 C57.07,49.04 56.33,49.57 55.87,50.14 L55.87,56.47 C55.87,56.7 55.69,56.88 55.47,56.88 L54.68,56.88 L54.68,56.88 Z" id="Shape" fill="#FFFFFF" sketch:type="MSShapeGroup"></path>
            <path d="M50.9,56.88 C50.68,56.88 50.5,56.7 50.5,56.47 L50.5,48.23 C50.5,48 50.68,47.82 50.9,47.82 L51.69,47.82 C51.91,47.82 52.09,48 52.09,48.23 L52.09,56.47 C52.09,56.7 51.91,56.88 51.69,56.88 L50.9,56.88 L50.9,56.88 Z M51.26,46.68 C50.69,46.68 50.31,46.4 50.31,45.741 C50.31,45.041 50.69,44.751 51.26,44.751 C51.85,44.751 52.25,45.041 52.25,45.741 C52.25,46.4 51.85,46.68 51.26,46.68 L51.26,46.68 Z" id="Shape" fill="#FFFFFF" sketch:type="MSShapeGroup"></path>
            <path d="M134.22,28.54 C132.25,28.2 130.34,29.87 129.97,32.03 C129.6,34.19 130.89,36.219 132.87,36.56 C134.84,36.9 136.74,35.43 137.11,33.27 C137.48,31.11 136.19,28.89 134.22,28.54 L134.22,28.54 Z" id="Shape" fill="#E64E00" sketch:type="MSShapeGroup"></path>
            <path d="M21.01,0.5 C20,0.25 19.45,0.16 19.19,0.16 C18.61,0.16 18.08,0.63 18.08,1.23 L18.08,15.72 C14.91,15.63 12.09,15.75 8.93,16.2 L8.92,1.62 C8.92,1.22 8.47,0.92 6.77,0.5 C5.76,0.25 5.21,0.16 4.95,0.16 C4.37,0.16 3.84,0.63 3.84,1.23 L3.84,17.19 C3.49,17.28 1.87,17.63 0.97,17.92 C0.06,18.22 -0.07,18.89 0.23,19.81 C0.72,21.31 2.36,23.09 3.33,22.68 C3.57,22.58 3.84,22.51 3.84,22.51 L3.861,29.16 L3.861,35.3 C3.861,35.7 4.01,36 5.711,36.42 C6.711,36.67 7.571,36.76 7.831,36.76 C8.411,36.76 8.931,36.29 8.931,35.69 L8.931,20.99 C12.742,20.11 15.681,19.87 18.081,19.69 L18.081,35.3 C18.081,35.71 18.231,36 19.931,36.42 C20.941,36.67 21.801,36.76 22.061,36.76 C22.641,36.76 23.161,36.29 23.161,35.69 L23.161,1.62 C23.16,1.22 22.71,0.92 21.01,0.5 L21.01,0.5 Z M34.97,33.53 C28.14,33.4 30,16.63 35.13,16.05 C40.87,15.4 41.67,33.66 34.97,33.53 L34.97,33.53 Z M33.95,12.2 C23.69,12.07 22.06,34.8 32.41,36.47 C45.3,38.55 46.3,12.35 33.95,12.2 L33.95,12.2 Z M74.31,33.54 C67.48,33.42 69.02,15.99 74.47,16.06 C77.09,16.09 78.34,19.88 78.38,24.47 C78.42,28.97 77.55,33.6 74.31,33.54 L74.31,33.54 Z M99.28,12.22 C95.139,12.89 93.36,18.66 93.36,19.43 L93.36,14.41 C93.36,14 92.92,13.71 91.22,13.28 C90.21,13.03 89.66,12.94 89.39,12.94 C88.821,12.94 88.281,13.42 88.281,14.01 L88.281,25.99 L88.231,26.58 C87.921,30.02 87.611,33.45 85.371,33.45 C82.411,33.45 83.301,27.21 83.341,24.53 C83.461,16.23 83.651,14.39 83.651,14.37 C83.651,13.96 83.201,13.67 81.501,13.24 C80.491,12.99 79.941,12.9 79.681,12.9 C79.101,12.9 78.561,13.38 78.561,13.97 L78.561,14.781 C77.261,13.22 75.501,12.231 73.291,12.201 C66.201,12.111 63.231,23.081 65.491,30.321 C65.161,32.241 64.47,33.671 62.651,33.521 C59.801,33.151 59.961,27.101 59.961,24.421 C59.961,14.331 60.261,1.641 60.261,1.621 C60.261,1.221 59.811,0.921 58.112,0.501 C57.102,0.251 56.551,0.161 56.292,0.161 C55.712,0.161 55.182,0.631 55.182,1.231 L55.182,23.261 C55.113,25.451 55.212,27.291 55.432,28.841 C54.972,31.481 54.002,33.661 52.082,33.521 C49.232,33.151 49.382,27.101 49.382,24.421 C49.382,14.331 49.692,1.641 49.692,1.621 C49.692,1.221 49.242,0.921 47.542,0.501 C46.532,0.251 45.982,0.161 45.722,0.161 C45.142,0.161 44.602,0.631 44.602,1.231 L44.602,23.561 C44.272,34.291 47.962,36.281 50.132,36.551 C51.212,36.691 54.972,36.362 56.182,32.041 C57.372,35.441 59.342,36.441 60.712,36.571 C61.592,36.651 65.112,36.381 66.522,32.72 C67.682,34.73 69.402,36.16 71.752,36.48 C75.172,36.94 77.692,35.26 79.302,32.59 C80.132,35.44 81.552,36.25 83.052,36.55 C84.172,36.78 86.752,36.571 88.282,34.06 L88.282,35.29 C88.282,35.7 88.442,35.99 90.141,36.42 C91.151,36.67 92.001,36.76 92.261,36.76 C92.841,36.76 93.361,36.281 93.361,35.69 L93.361,29.55 C93.361,26.95 95.011,17.361 99.071,17.071 C99.331,17.05 99.901,17.101 100.3,17.241 C103.51,18.35 103.45,11.55 99.28,12.22 L99.28,12.22 Z M111.82,33.54 C104.99,33.54 106.53,15.99 111.98,16.06 C114.29,16.09 115.69,19.03 115.82,22.89 C116.04,29.14 115.1,33.54 111.82,33.54 L111.82,33.54 Z M126.86,30.27 C126.46,30.14 126.08,30.4 126.02,30.63 C125.5,32.56 124.85,33.64 123.3,33.52 C120.45,33.15 120.6,27.1 120.6,24.42 C120.6,14.33 120.91,2.1 120.91,1.62 C120.91,1.22 120.46,0.92 118.76,0.5 C117.75,0.25 117.2,0.16 116.94,0.16 C116.36,0.16 115.82,0.63 115.82,1.23 L115.82,14.51 C114.549,13.111 112.88,12.23 110.799,12.2 C100.539,12.07 98.919,35.05 109.259,36.48 C112.769,36.96 115.339,35.11 116.929,32.24 C118.139,35.39 120.049,36.3 121.359,36.57 C122.289,36.759 125.429,36.44 126.939,33.259 C127.48,32.13 127.77,30.56 126.86,30.27 L126.86,30.27 Z" id="Shape" fill="#FFFFFF" sketch:type="MSShapeGroup"></path>
        </g>
        <g id="social" sketch:type="MSLayerGroup" transform="translate(0.000000, 80.000000)">
            <path d="M168,70.99 L161,70.99 L161,50.99 L168,50.99 L168,70.99 L168,70.99 Z M163.99,48.17 C161.79,48.17 160,46.56 160,44.59 C160,42.6 161.79,41 163.99,41 C166.19,41 167.98,42.6 167.98,44.59 C167.98,46.56 166.19,48.17 163.99,48.17 L163.99,48.17 Z M185,70.99 L185,59.9 C185,57.63 184.48,55.84 181.8,55.84 C179.12,55.84 178,58.12 178,60.45 L178,70.99 L171,70.99 L171,50.99 L178,50.99 L178,53.73 C179.88,51.34 181.51,50.54 184.48,50.54 C187.44,50.54 192,51.92 192,59.94 L192,70.99 L185,70.99 L185,70.99 Z" id="linkedin:hover" fill="#FFFFFF" sketch:type="MSShapeGroup"></path>
            <path d="M168,30.99 L161,30.99 L161,10.99 L168,10.99 L168,30.99 L168,30.99 Z M163.99,8.17 C161.79,8.17 160,6.56 160,4.59 C160,2.6 161.79,1 163.99,1 C166.19,1 167.98,2.6 167.98,4.59 C167.98,6.56 166.19,8.17 163.99,8.17 L163.99,8.17 Z M185,30.99 L185,19.9 C185,17.63 184.48,15.84 181.8,15.84 C179.12,15.84 178,18.12 178,20.45 L178,30.99 L171,30.99 L171,10.99 L178,10.99 L178,13.73 C179.88,11.34 181.51,10.54 184.48,10.54 C187.44,10.54 192,11.92 192,19.94 L192,30.99 L185,30.99 L185,30.99 Z" id="linkedin" fill="#786188" sketch:type="MSShapeGroup"></path>
            <path d="M92.95,49.16 C92.58,46.36 90.41,44.11 88.24,44.04 C86.07,43.98 84.61,46.13 84.98,48.93 C85.36,51.73 87.43,54.06 89.6,54.12 C91.77,54.19 93.33,51.97 92.95,49.16 L92.95,49.16 Z M89.31,59.57 C86.07,59.53 83.17,61.51 83.17,63.88 C83.17,66.3 85.51,68.07 88.75,68.07 C93.3,68.07 94.89,66.42 94.89,64 C94.89,63.71 94.85,63.43 94.79,63.15 C94.43,61.78 93.17,61.1 91.41,59.9 C90.77,59.7 90.07,59.58 89.31,59.57 L89.31,59.57 Z M93.17,44 C94.95,44.98 95.99,46.58 95.99,48.66 C95.99,50.41 94.9,52.26 93.51,53.33 C92.15,54.37 91.89,54.81 91.89,55.7 C91.89,56.46 93.35,57.75 94.11,58.28 C96.34,59.83 97,61.26 97,63.66 C97,66.66 94.11,70 88.77,70 C84.08,70 80,67.76 80,64.77 C80,61.73 83.73,58.79 88.42,58.79 C88.93,58.79 89.4,58.77 89.88,58.77 C89.24,58.16 88.73,57.4 88.73,56.47 C88.73,55.92 88.91,55.37 89.16,54.9 C88.91,54.92 88.65,54.88 88.38,54.88 C84.53,54.88 81.95,52.09 81.95,48.76 C81.95,45.5 85.51,42.5 89.3,42.5 C91.41,42.5 97.74,42.04 97.74,42.04 L95.85,44 L93.17,44 L93.17,44 Z M107,49 L107,54 L105,54 L105,49 L100,49 L100,47 L105,47 L105,42 L107,42 L107,47 L112,47 L112,49 L107,49 L107,49 Z" id="googleplus:hover" fill="#FFFFFF" sketch:type="MSShapeGroup"></path>
            <path d="M92.95,9.16 C92.58,6.36 90.41,4.11 88.24,4.04 C86.07,3.98 84.61,6.13 84.98,8.93 C85.36,11.73 87.43,14.06 89.6,14.12 C91.77,14.19 93.33,11.97 92.95,9.16 L92.95,9.16 Z M89.31,19.57 C86.07,19.53 83.17,21.51 83.17,23.88 C83.17,26.3 85.51,28.07 88.75,28.07 C93.3,28.07 94.89,26.42 94.89,24 C94.89,23.71 94.85,23.43 94.79,23.15 C94.43,21.78 93.17,21.1 91.41,19.9 C90.77,19.7 90.07,19.58 89.31,19.57 L89.31,19.57 Z M93.17,4 C94.95,4.98 95.99,6.58 95.99,8.66 C95.99,10.41 94.9,12.26 93.51,13.33 C92.15,14.37 91.89,14.81 91.89,15.7 C91.89,16.46 93.35,17.75 94.11,18.28 C96.34,19.83 97,21.26 97,23.66 C97,26.66 94.11,30 88.77,30 C84.08,30 80,27.76 80,24.77 C80,21.73 83.73,18.79 88.42,18.79 C88.93,18.79 89.4,18.77 89.88,18.77 C89.24,18.16 88.73,17.4 88.73,16.47 C88.73,15.92 88.91,15.37 89.16,14.9 C88.91,14.92 88.65,14.88 88.38,14.88 C84.53,14.88 81.95,12.09 81.95,8.76 C81.95,5.5 85.51,2.5 89.3,2.5 C91.41,2.5 97.74,2.04 97.74,2.04 L95.85,4 L93.17,4 L93.17,4 Z M107,9 L107,14 L105,14 L105,9 L100,9 L100,7 L105,7 L105,2 L107,2 L107,7 L112,7 L112,9 L107,9 L107,9 Z" id="googleplus" fill="#786188" sketch:type="MSShapeGroup"></path>
            <path d="M148,54 L145.05,54 C145.28,54.83 145.8,55.1 145.8,56 C145.8,61.41 141.41,65.8 136,65.8 C130.59,65.8 126.2,62.01 126.2,56.6 C126.2,55.7 126.32,54.83 126.55,54 L124,54 L124,68 C124,68.88 124.72,69 125.6,69 L146.4,69 C147.28,69 148,68.28 148,67.4 L148,54 L148,54 Z M148,45.6 C148,44.72 147.28,44 146.4,44 L143.6,44 C142.72,44 142,44.72 142,45.6 L142,48.4 C142,49.28 142.72,50 143.6,50 L146.4,50 C147.28,50 148,49.28 148,48.4 L148,45.6 L148,45.6 Z M136,49.8 C133.51,49.8 131.36,51.28 130.38,53.4 L130.37,53.4 L130.34,53.47 C130.29,53.6 130.23,53.73 130.18,53.87 L130.11,54.06 C130.07,54.2 130.03,54.35 129.99,54.49 L129.94,54.69 C129.91,54.84 129.89,54.99 129.87,55.15 L129.84,55.34 C129.81,55.55 129.8,55.78 129.8,56 C129.8,59.42 132.58,62.2 136,62.2 C139.42,62.2 142.2,59.42 142.2,56 C142.2,55.78 142.19,55.55 142.16,55.34 L142.14,55.15 C142.11,54.99 142.09,54.84 142.06,54.69 L142.01,54.49 C141.97,54.35 141.93,54.2 141.89,54.06 L141.82,53.87 C141.77,53.73 141.71,53.6 141.66,53.47 L141.63,53.4 L141.62,53.4 C140.64,51.28 138.49,49.8 136,49.8 L136,49.8 Z M148,72 L124,72 C121.79,72 120,70.21 120,68 L120,44 C120,41.79 121.79,40 124,40 L148,40 C150.21,40 152,41.79 152,44 L152,68 C152,70.21 150.21,72 148,72 L148,72 Z" id="instagram:hover" fill="#FFFFFF" sketch:type="MSShapeGroup"></path>
            <path d="M148,14 L145.05,14 C145.28,14.83 145.8,15.1 145.8,16 C145.8,21.41 141.41,25.8 136,25.8 C130.59,25.8 126.2,22.01 126.2,16.6 C126.2,15.7 126.32,14.83 126.55,14 L124,14 L124,28 C124,28.88 124.72,29 125.6,29 L146.4,29 C147.28,29 148,28.28 148,27.4 L148,14 L148,14 Z M148,5.6 C148,4.72 147.28,4 146.4,4 L143.6,4 C142.72,4 142,4.72 142,5.6 L142,8.4 C142,9.28 142.72,10 143.6,10 L146.4,10 C147.28,10 148,9.28 148,8.4 L148,5.6 L148,5.6 Z M136,9.8 C133.51,9.8 131.36,11.28 130.38,13.4 L130.37,13.4 L130.34,13.47 C130.29,13.6 130.23,13.73 130.18,13.87 L130.11,14.06 C130.07,14.2 130.03,14.35 129.99,14.49 L129.94,14.69 C129.91,14.84 129.89,14.99 129.87,15.15 L129.84,15.34 C129.81,15.55 129.8,15.78 129.8,16 C129.8,19.42 132.58,22.2 136,22.2 C139.42,22.2 142.2,19.42 142.2,16 C142.2,15.78 142.19,15.55 142.16,15.34 L142.14,15.15 C142.11,14.99 142.09,14.84 142.06,14.69 L142.01,14.49 C141.97,14.35 141.93,14.2 141.89,14.06 L141.82,13.87 C141.77,13.73 141.71,13.6 141.66,13.47 L141.63,13.4 L141.62,13.4 C140.64,11.28 138.49,9.8 136,9.8 L136,9.8 Z M148,32 L124,32 C121.79,32 120,30.21 120,28 L120,4 C120,1.79 121.79,0 124,0 L148,0 C150.21,0 152,1.79 152,4 L152,28 C152,30.21 150.21,32 148,32 L148,32 Z" id="instagram" fill="#786188" sketch:type="MSShapeGroup"></path>
            <path d="M21.77,43 C24.31,42.96 25.66,43.88 26.95,45.06 C28.05,44.97 29.48,44.35 30.32,43.93 L31.14,43.48 C30.66,44.78 30,45.79 29.01,46.56 C28.78,46.73 28.56,46.96 28.28,47.07 L28.28,47.09 C29.71,47.07 30.88,46.43 32,46.08 L32,46.1 C31.41,47.03 30.62,47.98 29.77,48.65 L28.75,49.47 C28.77,50.98 28.73,52.42 28.44,53.68 C26.8,61.05 22.46,66.06 15.58,68.2 C13.11,68.97 9.12,69.28 6.29,68.58 C4.89,68.23 3.62,67.84 2.43,67.32 C1.77,67.03 1.16,66.72 0.58,66.36 L0,66.01 C0.64,66.03 1.38,66.21 2.1,66.09 C2.74,65.99 3.38,66.01 3.97,65.88 C5.46,65.56 6.78,65.13 7.91,64.46 C8.46,64.14 9.3,63.76 9.69,63.3 C8.95,63.31 8.28,63.14 7.74,62.95 C5.61,62.2 4.38,60.82 3.57,58.75 C4.22,58.82 6.07,58.98 6.5,58.62 C5.69,58.57 4.91,58.1 4.36,57.76 C2.65,56.69 1.25,54.89 1.27,52.14 L1.94,52.45 C2.37,52.64 2.8,52.73 3.32,52.84 C3.53,52.88 3.96,53.01 4.21,52.92 L4.18,52.92 C3.85,52.53 3.31,52.28 2.98,51.86 C1.88,50.5 0.86,48.4 1.51,45.91 C1.67,45.27 1.93,44.72 2.21,44.2 L2.24,44.22 C2.37,44.48 2.65,44.68 2.83,44.9 C3.39,45.6 4.09,46.22 4.79,46.77 C7.19,48.64 9.35,49.8 12.81,50.65 C13.69,50.87 14.71,51.03 15.76,51.03 C15.46,50.17 15.56,48.78 15.79,47.95 C16.38,45.86 17.65,44.35 19.51,43.54 C19.95,43.35 20.45,43.21 20.96,43.1 L21.77,43 L21.77,43 Z" id="twitter:hover" fill="#FFFFFF" sketch:type="MSShapeGroup"></path>
            <path d="M21.77,3 C24.31,2.96 25.66,3.88 26.95,5.06 C28.05,4.97 29.48,4.35 30.32,3.93 L31.14,3.48 C30.66,4.78 30,5.79 29.01,6.56 C28.78,6.73 28.56,6.96 28.28,7.07 L28.28,7.09 C29.71,7.07 30.88,6.43 32,6.08 L32,6.1 C31.41,7.03 30.62,7.98 29.77,8.65 L28.75,9.47 C28.77,10.98 28.73,12.42 28.44,13.68 C26.8,21.05 22.46,26.06 15.58,28.2 C13.11,28.97 9.12,29.28 6.29,28.58 C4.89,28.23 3.62,27.84 2.43,27.32 C1.77,27.03 1.16,26.72 0.58,26.36 L0,26.01 C0.64,26.03 1.38,26.21 2.1,26.09 C2.74,25.99 3.38,26.01 3.97,25.88 C5.46,25.56 6.78,25.13 7.91,24.46 C8.46,24.14 9.3,23.76 9.69,23.3 C8.95,23.31 8.28,23.14 7.74,22.95 C5.61,22.2 4.38,20.82 3.57,18.75 C4.22,18.82 6.07,18.98 6.5,18.62 C5.69,18.57 4.91,18.1 4.36,17.76 C2.65,16.69 1.25,14.89 1.27,12.14 L1.94,12.45 C2.37,12.64 2.8,12.73 3.32,12.84 C3.53,12.88 3.96,13.01 4.21,12.92 L4.18,12.92 C3.85,12.53 3.31,12.28 2.98,11.86 C1.88,10.5 0.86,8.4 1.51,5.91 C1.67,5.27 1.93,4.72 2.21,4.2 L2.24,4.22 C2.37,4.48 2.65,4.68 2.83,4.9 C3.39,5.6 4.09,6.22 4.79,6.77 C7.19,8.64 9.35,9.8 12.81,10.65 C13.69,10.87 14.71,11.03 15.76,11.03 C15.46,10.17 15.56,8.78 15.79,7.95 C16.38,5.86 17.65,4.35 19.51,3.54 C19.95,3.35 20.45,3.21 20.96,3.1 L21.77,3 L21.77,3 Z" id="twitter" fill="#786188" sketch:type="MSShapeGroup"></path>
            <path d="M53.64,46.17 C52.18,46.17 50.76,46.41 49.81,46.87 C48.85,47.34 47.89,48.16 47.53,48.91 C47.18,49.65 47,50.55 47,52.06 L47,53 L45,53 L45,57 L47,57 L47,69 L52,69 L52,57 L55.19,57 L56.46,53 L52,53 L52,51.65 C52,50.74 52.17,50.61 52.5,50.29 C52.83,49.97 53.87,49.78 54.63,49.78 C55.41,49.78 56.03,50.14 56.81,50.6 L57.74,47.07 C56.3,46.67 55.13,46.17 53.64,46.17 L53.64,46.17 Z M69.54,72 L42.46,72 C41.1,72 40,71 40,69.64 L40,42.47 C40,41.1 41.1,40 42.46,40 L69.54,40 C70.9,40 72,41.1 72,42.47 L72,69.64 C72,71 70.9,72 69.54,72 L69.54,72 Z" id="facebook:hover" fill="#FFFFFF" sketch:type="MSShapeGroup"></path>
            <path d="M53.64,6.17 C52.18,6.17 50.76,6.41 49.81,6.87 C48.85,7.34 47.89,8.16 47.53,8.91 C47.18,9.65 47,10.55 47,12.06 L47,13 L45,13 L45,17 L47,17 L47,29 L52,29 L52,17 L55.19,17 L56.46,13 L52,13 L52,11.65 C52,10.74 52.17,10.61 52.5,10.29 C52.83,9.97 53.87,9.78 54.63,9.78 C55.41,9.78 56.03,10.14 56.81,10.6 L57.74,7.07 C56.3,6.67 55.13,6.17 53.64,6.17 L53.64,6.17 Z M69.54,32 L42.46,32 C41.1,32 40,31 40,29.64 L40,2.47 C40,1.1 41.1,0 42.46,0 L69.54,0 C70.9,0 72,1.1 72,2.47 L72,29.64 C72,31 70.9,32 69.54,32 L69.54,32 Z" id="facebook" fill="#786188" sketch:type="MSShapeGroup"></path>
        </g>
        <g id="icons" sketch:type="MSLayerGroup" transform="translate(0.000000, -30.000000)">
            <path d="M15,199.376923 L15,205.838462 L9,205.838462 L9,201.530769 L7,201.530769 L7,205.838462 L5,205.838462 L5,199.376923 L3,199.376923 L10,192 L16.99,199.376923 L15,199.376923 Z" id="home" opacity="0.8" fill="#FFFFFF" sketch:type="MSShapeGroup"></path>
            <path d="M30,192 C26.6836364,192 24,194.56 24,197.7 C24,200.68 26.7163636,204.51 28.5272727,206.38 C29.2145455,207.08 30,208.02 30,208.02 C30,208.02 30.8509091,207.07 31.5818182,206.35 C33.3927273,204.56 36,200.97 36,197.7 C36,194.56 33.3163636,192 30,192 L30,192 Z M30,200.26 C28.5054545,200.26 27.2836364,199.11 27.2836364,197.68 C27.2836364,196.26 28.5054545,195.11 30,195.11 C31.4945455,195.11 32.7163636,196.26 32.7163636,197.68 C32.7163636,199.11 31.4945455,200.26 30,200.26 L30,200.26 Z" id="location" opacity="0.8" fill="#FFFFFF" sketch:type="MSShapeGroup"></path>
            <path d="M130,192 C126.683636,192 124,194.56 124,197.7 C124,200.68 126.716364,204.51 128.527273,206.38 C129.214545,207.08 130,208.02 130,208.02 C130,208.02 130.850909,207.07 131.581818,206.35 C133.392727,204.56 136,200.97 136,197.7 C136,194.56 133.316364,192 130,192 L130,192 Z M130,200.26 C128.505455,200.26 127.283636,199.11 127.283636,197.68 C127.283636,196.26 128.505455,195.11 130,195.11 C131.494545,195.11 132.716364,196.26 132.716364,197.68 C132.716364,199.11 131.494545,200.26 130,200.26 L130,200.26 Z" id="location" fill="#44B4A6" sketch:type="MSShapeGroup"></path>
            <path d="M210.28,127.84 C207.22,127.84 204.74,125.35 204.74,122.29 C204.74,119.24 207.22,116.75 210.28,116.75 C213.33,116.75 215.81,119.24 215.81,122.29 C215.81,125.35 213.33,127.84 210.28,127.84 L210.28,127.84 Z M219.51,128.37 C219.2,128.06 219.1,127.49 219.28,127.09 C219.28,127.09 220.56,124.33 220.56,122.29 C220.56,116.61 215.96,112 210.28,112 C204.6,112 200,116.61 200,122.29 C200,127.98 204.6,132.59 210.28,132.59 C212.31,132.59 215.07,131.31 215.07,131.31 C215.46,131.13 216.04,131.23 216.34,131.54 L224.21,139.42 C224.52,139.72 225.02,139.72 225.33,139.42 L227.38,137.37 C227.68,137.06 227.68,136.55 227.38,136.25 L219.51,128.37 L219.51,128.37 Z" id="search--large" fill="#FFFFFF" sketch:type="MSShapeGroup"></path>
            <path d="M151.136471,201.6875 L151.108235,201.7075 L149.903529,202.9075 L154.976471,207.9975 C155.512941,208.5275 156.388235,208.5275 156.924706,207.9975 L157.404706,207.5075 C157.941176,206.9775 157.941176,206.0975 157.404706,205.5675 L152.077647,200.2275 L157.404706,194.8275 C157.941176,194.2975 157.941176,193.4275 157.404706,192.8875 L156.924706,192.3975 C156.388235,191.8675 155.512941,191.8675 154.976471,192.3975 L149.903529,197.5275 L151.108235,198.7375 L151.136471,198.7575 L151.625882,199.2475 C151.889412,199.5175 152.021176,199.8675 152.021176,200.2275 C152.021176,200.5775 151.889412,200.9275 151.625882,201.1975 L151.136471,201.6875 L151.136471,201.6875 Z M151.108235,198.7375 L149.903529,197.5275 L148.698824,198.7375 L148.670588,198.7575 L148.181176,199.2475 C147.917647,199.5175 147.785882,199.8675 147.785882,200.2275 C147.785882,200.5775 147.917647,200.9275 148.181176,201.1975 L148.670588,201.6875 L148.698824,201.7075 L149.903529,202.9075 L151.108235,201.7075 L151.136471,201.6875 L151.625882,201.1975 C151.889412,200.9275 152.021176,200.5775 152.021176,200.2275 C152.021176,199.8675 151.889412,199.5175 151.625882,199.2475 L151.136471,198.7575 L151.108235,198.7375 L151.108235,198.7375 Z M144.830588,207.9975 L149.903529,202.9075 L148.698824,201.7075 L148.670588,201.6875 L148.181176,201.1975 C147.917647,200.9275 147.785882,200.5775 147.785882,200.2275 C147.785882,199.8675 147.917647,199.5175 148.181176,199.2475 L148.670588,198.7575 L148.698824,198.7375 L149.903529,197.5275 L144.830588,192.3975 C144.294118,191.8675 143.418824,191.8675 142.882353,192.3975 L142.402353,192.8875 C141.865882,193.4275 141.865882,194.2975 142.402353,194.8275 L147.729412,200.2275 L142.402353,205.5675 C141.865882,206.0975 141.865882,206.9775 142.402353,207.5075 L142.882353,207.9975 C143.418824,208.5275 144.294118,208.5275 144.830588,207.9975 L144.830588,207.9975 Z" id="close" fill="#FFFFFF" sketch:type="MSShapeGroup"></path>
            <path d="M183,190 L199,190 L199,192 L183,192 L183,190 L183,190 Z M183,196 L197,196 L197,198 L183,198 L183,196 L183,196 Z M183,193 L194,193 L194,195 L183,195 L183,193 L183,193 Z M180,190 L182,190 L182,192 L180,192 L180,190 L180,190 Z M180,193 L182,193 L182,195 L180,195 L180,193 L180,193 Z M180,196 L182,196 L182,198 L180,198 L180,196 L180,196 Z" id="Shape" fill="#E64E00" sketch:type="MSShapeGroup"></path>
            <path d="M163,190 L179,190 L179,192 L163,192 L163,190 L163,190 Z M163,196 L177,196 L177,198 L163,198 L163,196 L163,196 Z M163,193 L174,193 L174,195 L163,195 L163,193 L163,193 Z M160,190 L162,190 L162,192 L160,192 L160,190 L160,190 Z M160,193 L162,193 L162,195 L160,195 L160,193 L160,193 Z M160,196 L162,196 L162,198 L160,198 L160,196 L160,196 Z" id="Shape" fill="#9A8AA0" sketch:type="MSShapeGroup"></path>
            <path d="M23.5957031,375.543945 C23.5729166,375.580404 23.548991,375.610026 23.5239258,375.632812 C23.4988606,375.655599 23.4669598,375.673828 23.4282227,375.6875 C23.3894855,375.701172 23.3382165,375.710286 23.2744141,375.714844 C23.2106117,375.719401 23.1285812,375.72168 23.0283203,375.72168 C22.9143875,375.72168 22.8232425,375.714844 22.7548828,375.701172 C22.6865231,375.6875 22.6352541,375.666992 22.6010742,375.639648 C22.5668944,375.612305 22.550944,375.580404 22.5532227,375.543945 C22.5555013,375.507487 22.5703124,375.466472 22.5976562,375.420898 L24.0537109,372.864258 L22.5908203,370.314453 C22.5634764,370.26888 22.5486654,370.226725 22.5463867,370.187988 C22.5441081,370.149251 22.5589191,370.115072 22.5908203,370.085449 C22.6227215,370.055827 22.6728512,370.03418 22.7412109,370.020508 C22.8095707,370.006836 22.9007156,370 23.0146484,370 C23.1149094,370 23.1958005,370.002279 23.2573242,370.006836 C23.318848,370.011393 23.370117,370.020508 23.4111328,370.03418 C23.4521486,370.047852 23.4840494,370.066081 23.5068359,370.088867 C23.5296225,370.111654 23.5546874,370.141276 23.5820312,370.177734 L25.0859375,372.59082 C25.1497399,372.695639 25.1816406,372.793619 25.1816406,372.884766 C25.1816406,372.975912 25.1474613,373.073893 25.0791016,373.178711 L23.5957031,375.543945 Z M21.09375,375.414062 C21.0709634,375.450521 21.0481772,375.480143 21.0253906,375.50293 C21.0026041,375.525716 20.9707033,375.542806 20.9296875,375.554199 C20.8886717,375.565593 20.8362633,375.573568 20.7724609,375.578125 C20.7086585,375.582682 20.6243495,375.584961 20.5195312,375.584961 C20.4010411,375.584961 20.3064782,375.579264 20.2358398,375.567871 C20.1652015,375.556478 20.1127931,375.538249 20.0786133,375.513184 C20.0444334,375.488118 20.0273438,375.458496 20.0273438,375.424316 C20.0273438,375.390137 20.0432941,375.350261 20.0751953,375.304688 L21.5449219,372.87793 L20.0410156,370.410156 C20.0136717,370.364583 20,370.325847 20,370.293945 C20,370.262044 20.0170897,370.234701 20.0512695,370.211914 C20.0854494,370.189127 20.1378577,370.170899 20.2084961,370.157227 C20.2791345,370.143555 20.3736973,370.136719 20.4921875,370.136719 C20.5924484,370.136719 20.6756182,370.138997 20.7416992,370.143555 C20.8077803,370.148112 20.8601886,370.157226 20.8989258,370.170898 C20.937663,370.18457 20.9695637,370.20166 20.9946289,370.222168 C21.0196941,370.242676 21.0436197,370.271159 21.0664062,370.307617 L22.5634766,372.604492 C22.627279,372.700196 22.6591797,372.79248 22.6591797,372.881348 C22.6591797,372.970215 22.6250003,373.064778 22.5566406,373.165039 L21.09375,375.414062 Z" id="sub-categories" fill-opacity="0.7" fill="#FFFFFF" sketch:type="MSShapeGroup"></path>
            <path d="M4.6301748,336.127749 C4.60073583,336.171728 4.57007069,336.209598 4.53817848,336.241361 C4.50628626,336.273124 4.46090186,336.297557 4.40202392,336.31466 C4.34314599,336.331763 4.26832306,336.345201 4.1775529,336.354974 C4.08678275,336.364747 3.97025524,336.369634 3.82796689,336.369634 C3.64642658,336.369634 3.50168715,336.361082 3.39374426,336.343979 C3.28580137,336.326876 3.20484542,336.3 3.15087397,336.263351 C3.09690253,336.226701 3.06869061,336.183944 3.06623736,336.135079 C3.06378411,336.086213 3.07727677,336.030018 3.10671574,335.966492 L4.54185833,333.217801 L3.06991721,330.410471 C3.03557175,330.346946 3.01962588,330.289529 3.02207912,330.23822 C3.02453237,330.186911 3.05151769,330.144154 3.10303589,330.109948 C3.15455408,330.075742 3.23428343,330.048866 3.34222632,330.029319 C3.45016921,330.009773 3.59736185,330 3.78380865,330 C3.92609701,330 4.04262451,330.004887 4.13339467,330.01466 C4.22416483,330.024433 4.29776115,330.037871 4.35418584,330.054974 C4.41061053,330.072077 4.45599493,330.096509 4.49034039,330.128272 C4.52468586,330.160035 4.55412438,330.197906 4.57865686,330.241885 L6.22723091,332.924607 C6.29101535,333.027226 6.32168048,333.132286 6.31922723,333.239791 C6.31677398,333.347295 6.27629601,333.464572 6.19779209,333.591623 L4.6301748,336.127749 Z M1.64949403,335.981152 C1.62005506,336.025131 1.58938993,336.06178 1.55749771,336.091099 C1.52560549,336.120419 1.4802211,336.14363 1.42134316,336.160733 C1.36246522,336.177836 1.2888689,336.190052 1.20055199,336.197382 C1.11223508,336.204712 0.99693418,336.208377 0.854645827,336.208377 C0.673105514,336.208377 0.528366085,336.201047 0.420423196,336.186387 C0.312480308,336.171728 0.231524356,336.148517 0.177552912,336.116754 C0.123581467,336.084991 0.0953695447,336.044677 0.0929162972,335.995812 C0.0904630498,335.946946 0.106408919,335.890751 0.140754384,335.827225 L1.53909845,333.225131 L0.0450782109,330.520419 C0.0107327464,330.46178 -0.00398651764,330.411693 0.000919977287,330.370157 C0.00582647222,330.328621 0.0340383949,330.293194 0.0855565917,330.263874 C0.137074788,330.234555 0.21803074,330.212566 0.328426876,330.197906 C0.438823012,330.183246 0.584789047,330.175916 0.766329359,330.175916 C0.908617712,330.175916 1.02514522,330.178359 1.11591538,330.183246 C1.20668553,330.188133 1.28028185,330.199127 1.33670654,330.21623 C1.39313123,330.233333 1.43728903,330.255323 1.46918124,330.282199 C1.50107346,330.309075 1.53173859,330.342059 1.56117756,330.381152 L3.1876725,332.924607 C3.25145693,333.022339 3.28212207,333.123734 3.27966882,333.228796 C3.27721557,333.333857 3.2367376,333.449912 3.15823368,333.576963 L1.64949403,335.981152 Z" id="categories" fill-opacity="0.7" fill="#FFFFFF" sketch:type="MSShapeGroup"></path>
            <path d="M49.24,202.83 L49.23,202.81 L46.01,199.44 C45.73,199.16 45.73,198.69 46.01,198.4 L46.26,198.14 C46.53,197.85 46.98,197.85 47.26,198.14 L49.99,201 L52.76,198.14 C53.03,197.85 53.48,197.85 53.76,198.14 L54,198.4 C54.28,198.69 54.28,199.16 54,199.44 L50.76,202.81 L50.74,202.83 L50.49,203.09 C50.36,203.24 50.18,203.31 49.99,203.31 C49.81,203.31 49.63,203.24 49.49,203.09 L49.24,202.83 L49.24,202.83 Z M58.33,200 C58.33,195.41 54.59,191.67 50,191.67 C45.41,191.67 41.67,195.41 41.67,200 C41.67,204.59 45.41,208.33 50,208.33 C54.59,208.33 58.33,204.59 58.33,200 L58.33,200 Z M40,200 C40,194.48 44.48,190 50,190 C55.52,190 60,194.48 60,200 C60,205.52 55.52,210 50,210 C44.48,210 40,205.52 40,200 L40,200 Z" id="arrow-up" opacity="0.8" fill="#FFFFFF" sketch:type="MSShapeGroup" transform="translate(50.000000, 200.000000) scale(1, -1) translate(-50.000000, -200.000000) "></path>
            <path d="M69.24,202.83 L69.23,202.81 L66.01,199.44 C65.73,199.16 65.73,198.69 66.01,198.4 L66.26,198.14 C66.53,197.85 66.98,197.85 67.26,198.14 L69.99,201 L72.76,198.14 C73.03,197.85 73.48,197.85 73.76,198.14 L74,198.4 C74.28,198.69 74.28,199.16 74,199.44 L70.76,202.81 L70.74,202.83 L70.49,203.09 C70.36,203.24 70.18,203.31 69.99,203.31 C69.81,203.31 69.63,203.24 69.49,203.09 L69.24,202.83 L69.24,202.83 Z M78.33,200 C78.33,195.41 74.59,191.67 70,191.67 C65.41,191.67 61.67,195.41 61.67,200 C61.67,204.59 65.41,208.33 70,208.33 C74.59,208.33 78.33,204.59 78.33,200 L78.33,200 Z M60,200 C60,194.48 64.48,190 70,190 C75.52,190 80,194.48 80,200 C80,205.52 75.52,210 70,210 C64.48,210 60,205.52 60,200 L60,200 Z" id="arrow-down" opacity="0.8" fill="#FFFFFF" sketch:type="MSShapeGroup"></path>
            <path d="M109.24,202.83 L109.23,202.81 L106.01,199.44 C105.73,199.16 105.73,198.69 106.01,198.4 L106.26,198.14 C106.53,197.85 106.98,197.85 107.26,198.14 L109.99,201 L112.76,198.14 C113.03,197.85 113.48,197.85 113.76,198.14 L114,198.4 C114.28,198.69 114.28,199.16 114,199.44 L110.76,202.81 L110.74,202.83 L110.49,203.09 C110.36,203.24 110.18,203.31 109.99,203.31 C109.81,203.31 109.63,203.24 109.49,203.09 L109.24,202.83 L109.24,202.83 Z M118.33,200 C118.33,195.41 114.59,191.67 110,191.67 C105.41,191.67 101.67,195.41 101.67,200 C101.67,204.59 105.41,208.33 110,208.33 C114.59,208.33 118.33,204.59 118.33,200 L118.33,200 Z M100,200 C100,194.48 104.48,190 110,190 C115.52,190 120,194.48 120,200 C120,205.52 115.52,210 110,210 C104.48,210 100,205.52 100,200 L100,200 Z" id="arrow-right" opacity="0.8" fill="#FFFFFF" sketch:type="MSShapeGroup" transform="translate(110.000000, 200.000000) scale(-1, -1) rotate(-270.000000) translate(-110.000000, -200.000000) "></path>
            <path d="M89.24,202.83 L89.23,202.81 L86.01,199.44 C85.73,199.16 85.73,198.69 86.01,198.4 L86.26,198.14 C86.53,197.85 86.98,197.85 87.26,198.14 L89.99,201 L92.76,198.14 C93.03,197.85 93.48,197.85 93.76,198.14 L94,198.4 C94.28,198.69 94.28,199.16 94,199.44 L90.76,202.81 L90.74,202.83 L90.49,203.09 C90.36,203.24 90.18,203.31 89.99,203.31 C89.81,203.31 89.63,203.24 89.49,203.09 L89.24,202.83 L89.24,202.83 Z M98.33,200 C98.33,195.41 94.59,191.67 90,191.67 C85.41,191.67 81.67,195.41 81.67,200 C81.67,204.59 85.41,208.33 90,208.33 C94.59,208.33 98.33,204.59 98.33,200 L98.33,200 Z M80,200 C80,194.48 84.48,190 90,190 C95.52,190 100,194.48 100,200 C100,205.52 95.52,210 90,210 C84.48,210 80,205.52 80,200 L80,200 Z" id="arrow-left" opacity="0.8" fill="#FFFFFF" sketch:type="MSShapeGroup" transform="translate(90.000000, 200.000000) scale(1, -1) rotate(-270.000000) translate(-90.000000, -200.000000) "></path>
        </g>
        <g id="slider" sketch:type="MSLayerGroup" transform="translate(80.000000, 200.000000)">
            <g id="next:hover" transform="translate(40.000000, 40.000000)" sketch:type="MSShapeGroup">
                <rect id="button" stroke-opacity="0.7" stroke="#FFFFFF" opacity="0.6" fill="#E6E6E6" filter="url(#filter-1)" x="0" y="0" width="40" height="40" rx="2"></rect>
                <path d="M23.4,20.91 L23.38,20.92 L19.33,24.79 C18.99,25.12 18.43,25.12 18.08,24.79 L17.77,24.49 C17.42,24.16 17.42,23.62 17.77,23.29 L21.21,20.01 L17.77,16.69 C17.42,16.36 17.42,15.82 17.77,15.49 L18.08,15.19 C18.43,14.86 18.99,14.86 19.33,15.19 L23.38,19.09 L23.4,19.11 L23.71,19.41 C23.88,19.57 23.97,19.79 23.97,20.01 C23.97,20.22 23.88,20.44 23.71,20.61 L23.4,20.91 L23.4,20.91 Z" id="arrow" fill="#442359"></path>
            </g>
            <g id="next" transform="translate(40.000000, 0.000000)" sketch:type="MSShapeGroup">
                <rect id="button" stroke-opacity="0.7" stroke="#FFFFFF" opacity="0.6" fill="#E6E6E6" filter="url(#filter-2)" x="0" y="0" width="40" height="40" rx="2"></rect>
                <path d="M23.4,20.91 L23.38,20.92 L19.33,24.79 C18.99,25.12 18.43,25.12 18.08,24.79 L17.77,24.49 C17.42,24.16 17.42,23.62 17.77,23.29 L21.21,20.01 L17.77,16.69 C17.42,16.36 17.42,15.82 17.77,15.49 L18.08,15.19 C18.43,14.86 18.99,14.86 19.33,15.19 L23.38,19.09 L23.4,19.11 L23.71,19.41 C23.88,19.57 23.97,19.79 23.97,20.01 C23.97,20.22 23.88,20.44 23.71,20.61 L23.4,20.91 L23.4,20.91 Z" id="arrow" fill="#666666"></path>
            </g>
            <g id="prev:hover" transform="translate(0.000000, 40.000000)" sketch:type="MSShapeGroup">
                <rect id="button" stroke-opacity="0.7" stroke="#FFFFFF" opacity="0.6" fill="#E6E6E6" filter="url(#filter-3)" x="0" y="0" width="40" height="40" rx="2"></rect>
                <path d="M21.4,20.91 L21.38,20.92 L17.33,24.79 C16.99,25.12 16.43,25.12 16.08,24.79 L15.77,24.49 C15.42,24.16 15.42,23.62 15.77,23.29 L19.21,20.01 L15.77,16.69 C15.42,16.36 15.42,15.82 15.77,15.49 L16.08,15.19 C16.43,14.86 16.99,14.86 17.33,15.19 L21.38,19.09 L21.4,19.11 L21.71,19.41 C21.88,19.57 21.97,19.79 21.97,20.01 C21.97,20.22 21.88,20.44 21.71,20.61 L21.4,20.91 L21.4,20.91 Z" id="arrow" fill="#442359" transform="translate(19.000000, 20.000000) scale(-1, 1) translate(-19.000000, -20.000000) "></path>
            </g>
            <g id="prev" sketch:type="MSShapeGroup">
                <rect id="button" stroke-opacity="0.7" stroke="#FFFFFF" opacity="0.6" fill="#E6E6E6" filter="url(#filter-4)" x="0" y="0" width="40" height="40" rx="2"></rect>
                <path d="M21.4,20.91 L21.38,20.92 L17.33,24.79 C16.99,25.12 16.43,25.12 16.08,24.79 L15.77,24.49 C15.42,24.16 15.42,23.62 15.77,23.29 L19.21,20.01 L15.77,16.69 C15.42,16.36 15.42,15.82 15.77,15.49 L16.08,15.19 C16.43,14.86 16.99,14.86 17.33,15.19 L21.38,19.09 L21.4,19.11 L21.71,19.41 C21.88,19.57 21.97,19.79 21.97,20.01 C21.97,20.22 21.88,20.44 21.71,20.61 L21.4,20.91 L21.4,20.91 Z" id="arrow" fill="#666666" transform="translate(19.000000, 20.000000) scale(-1, 1) translate(-19.000000, -20.000000) "></path>
            </g>
            <g id="controls" transform="translate(91.000000, 1.000000)" sketch:type="MSShapeGroup">
                <circle id="active" fill="#442359" cx="4" cy="24" r="4"></circle>
                <circle id="hover" stroke="#442359" fill="#FFFFFF" cx="4" cy="14" r="4"></circle>
                <circle id="static" stroke="#442359" fill="#FFFFFF" cx="4" cy="4" r="4"></circle>
            </g>
        </g>
        <g id="menu" sketch:type="MSLayerGroup" transform="translate(0.000000, 120.000000)">
            <path d="M404.375,7 L385.625,7 C385.283333,7 385,6.864 385,6.692 L385,5.32 C385,5.144 385.283333,5 385.625,5 L404.375,5 C404.716667,5 405,5.144 405,5.32 L405,6.692 C405,6.86 404.716667,7 404.375,7 L404.375,7 Z M404.375,11 L385.625,11 C385.283333,11 385,10.864 385,10.692 L385,9.32 C385,9.144 385.283333,9 385.625,9 L404.375,9 C404.716667,9 405,9.144 405,9.32 L405,10.692 C405,10.86 404.716667,11 404.375,11 L404.375,11 Z M404.375,15 L385.625,15 C385.283333,15 385,14.864 385,14.692 L385,13.32 C385,13.144 385.283333,13 385.625,13 L404.375,13 C404.716667,13 405,13.144 405,13.32 L405,14.692 C405,14.86 404.716667,15 404.375,15 L404.375,15 Z" id="menu-mega:active" fill="#E64E1E" sketch:type="MSShapeGroup"></path>
            <g id="menu-mega:hover" transform="translate(340.000000, 0.000000)" sketch:type="MSShapeGroup">
                <rect id="Rectangle-9-copy" opacity="0.5" fill="#694F7A" x="0" y="0" width="30" height="60"></rect>
                <path d="M24.375,7 L5.625,7 C5.28333333,7 5,6.864 5,6.692 L5,5.32 C5,5.144 5.28333333,5 5.625,5 L24.375,5 C24.7166667,5 25,5.144 25,5.32 L25,6.692 C25,6.86 24.7166667,7 24.375,7 L24.375,7 Z M24.375,11 L5.625,11 C5.28333333,11 5,10.864 5,10.692 L5,9.32 C5,9.144 5.28333333,9 5.625,9 L24.375,9 C24.7166667,9 25,9.144 25,9.32 L25,10.692 C25,10.86 24.7166667,11 24.375,11 L24.375,11 Z M24.375,15 L5.625,15 C5.28333333,15 5,14.864 5,14.692 L5,13.32 C5,13.144 5.28333333,13 5.625,13 L24.375,13 C24.7166667,13 25,13.144 25,13.32 L25,14.692 C25,14.86 24.7166667,15 24.375,15 L24.375,15 Z" id="Shape" fill="#FFFFFF"></path>
            </g>
            <path d="M324.375,7 L305.625,7 C305.283333,7 305,6.864 305,6.692 L305,5.32 C305,5.144 305.283333,5 305.625,5 L324.375,5 C324.716667,5 325,5.144 325,5.32 L325,6.692 C325,6.86 324.716667,7 324.375,7 L324.375,7 Z M324.375,10 L305.625,10 C305.283333,10 305,9.864 305,9.692 L305,8.32 C305,8.144 305.283333,8 305.625,8 L324.375,8 C324.716667,8 325,8.144 325,8.32 L325,9.692 C325,9.86 324.716667,10 324.375,10 L324.375,10 Z M324.375,13 L305.625,13 C305.283333,13 305,12.864 305,12.692 L305,11.32 C305,11.144 305.283333,11 305.625,11 L324.375,11 C324.716667,11 325,11.144 325,11.32 L325,12.692 C325,12.86 324.716667,13 324.375,13 L324.375,13 Z" id="menu-mega" fill="#9A8AA0" sketch:type="MSShapeGroup"></path>
            <path d="M23.25,115 L0.75,115 C0.34,115 0,114.66 0,114.23 L0,110.8 C0,110.36 0.34,110 0.75,110 L23.25,110 C23.66,110 24,110.36 24,110.8 L24,114.23 C24,114.65 23.66,115 23.25,115 L23.25,115 Z M23.25,123 L0.75,123 C0.34,123 0,122.66 0,122.23 L0,118.8 C0,118.36 0.34,118 0.75,118 L23.25,118 C23.66,118 24,118.36 24,118.8 L24,122.23 C24,122.65 23.66,123 23.25,123 L23.25,123 Z M23.25,131 L0.75,131 C0.34,131 0,130.66 0,130.23 L0,126.8 C0,126.36 0.34,126 0.75,126 L23.25,126 C23.66,126 24,126.36 24,126.8 L24,130.23 C24,130.65 23.66,131 23.25,131 L23.25,131 Z" id="menu-mobile" fill="#FFFFFF" sketch:type="MSShapeGroup"></path>
        </g>
        <g id="forms" sketch:type="MSLayerGroup" transform="translate(255.000000, 137.000000)">
            <g id="select" sketch:type="MSShapeGroup">
                <path d="M4.1275,45.8925 L4.1175,45.8725 L0.2475,41.8225 C-0.0825,41.4825 -0.0825,40.9225 0.2475,40.5725 L0.5475,40.2625 C0.8775,39.9125 1.4175,39.9125 1.7475,40.2625 L5.0275,43.7025 L8.3475,40.2625 C8.6775,39.9125 9.2175,39.9125 9.5475,40.2625 L9.8475,40.5725 C10.1775,40.9225 10.1775,41.4825 9.8475,41.8225 L5.9475,45.8725 L5.9275,45.8925 L5.6275,46.2025 C5.4675,46.3725 5.2475,46.4625 5.0275,46.4625 C4.8175,46.4625 4.5975,46.3725 4.4275,46.2025 L4.1275,45.8925 L4.1275,45.8925 Z" id="arrow:hover" fill="#FFFFFF"></path>
                <path d="M4.1275,5.8925 L4.1175,5.8725 L0.2475,1.8225 C-0.0825,1.4825 -0.0825,0.9225 0.2475,0.5725 L0.5475,0.2625 C0.8775,-0.0875 1.4175,-0.0875 1.7475,0.2625 L5.0275,3.7025 L8.3475,0.2625 C8.6775,-0.0875 9.2175,-0.0875 9.5475,0.2625 L9.8475,0.5725 C10.1775,0.9225 10.1775,1.4825 9.8475,1.8225 L5.9475,5.8725 L5.9275,5.8925 L5.6275,6.2025 C5.4675,6.3725 5.2475,6.4625 5.0275,6.4625 C4.8175,6.4625 4.5975,6.3725 4.4275,6.2025 L4.1275,5.8925 L4.1275,5.8925 Z" id="arrow" fill="#8C8C8C"></path>
            </g>
        </g>
        <g id="accordion" sketch:type="MSLayerGroup" transform="translate(390.000000, 435.000000)">
            <path d="M9.24,112.83 L9.23,112.81 L6.01,109.44 C5.73,109.16 5.73,108.69 6.01,108.4 L6.26,108.14 C6.53,107.85 6.98,107.85 7.26,108.14 L9.99,111 L12.76,108.14 C13.03,107.85 13.48,107.85 13.76,108.14 L14,108.4 C14.28,108.69 14.28,109.16 14,109.44 L10.76,112.81 L10.74,112.83 L10.49,113.09 C10.36,113.24 10.18,113.31 9.99,113.31 C9.81,113.31 9.63,113.24 9.49,113.09 L9.24,112.83 L9.24,112.83 Z M18.33,110 C18.33,105.41 14.59,101.67 10,101.67 C5.41,101.67 1.67,105.41 1.67,110 C1.67,114.59 5.41,118.33 10,118.33 C14.59,118.33 18.33,114.59 18.33,110 L18.33,110 Z M0,110 C0,104.48 4.48,100 10,100 C15.52,100 20,104.48 20,110 C20,115.52 15.52,120 10,120 C4.48,120 0,115.52 0,110 L0,110 Z" id="active" fill="#FFFFFF" sketch:type="MSShapeGroup" transform="translate(10.000000, 110.000000) scale(1, -1) translate(-10.000000, -110.000000) "></path>
            <path d="M9.24,62.83 L9.23,62.81 L6.01,59.44 C5.73,59.16 5.73,58.69 6.01,58.4 L6.26,58.14 C6.53,57.85 6.98,57.85 7.26,58.14 L9.99,61 L12.76,58.14 C13.03,57.85 13.48,57.85 13.76,58.14 L14,58.4 C14.28,58.69 14.28,59.16 14,59.44 L10.76,62.81 L10.74,62.83 L10.49,63.09 C10.36,63.24 10.18,63.31 9.99,63.31 C9.81,63.31 9.63,63.24 9.49,63.09 L9.24,62.83 L9.24,62.83 Z M18.33,60 C18.33,55.41 14.59,51.67 10,51.67 C5.41,51.67 1.67,55.41 1.67,60 C1.67,64.59 5.41,68.33 10,68.33 C14.59,68.33 18.33,64.59 18.33,60 L18.33,60 Z M0,60 C0,54.48 4.48,50 10,50 C15.52,50 20,54.48 20,60 C20,65.52 15.52,70 10,70 C4.48,70 0,65.52 0,60 L0,60 Z" id="static:hover" fill="#44B4A6" sketch:type="MSShapeGroup"></path>
            <path d="M9.24,12.83 L9.23,12.81 L6.01,9.44 C5.73,9.16 5.73,8.69 6.01,8.4 L6.26,8.14 C6.53,7.85 6.98,7.85 7.26,8.14 L9.99,11 L12.76,8.14 C13.03,7.85 13.48,7.85 13.76,8.14 L14,8.4 C14.28,8.69 14.28,9.16 14,9.44 L10.76,12.81 L10.74,12.83 L10.49,13.09 C10.36,13.24 10.18,13.31 9.99,13.31 C9.81,13.31 9.63,13.24 9.49,13.09 L9.24,12.83 L9.24,12.83 Z M18.33,10 C18.33,5.41 14.59,1.67 10,1.67 C5.41,1.67 1.67,5.41 1.67,10 C1.67,14.59 5.41,18.33 10,18.33 C14.59,18.33 18.33,14.59 18.33,10 L18.33,10 Z M0,10 C0,4.48 4.48,0 10,0 C15.52,0 20,4.48 20,10 C20,15.52 15.52,20 10,20 C4.48,20 0,15.52 0,10 L0,10 Z" id="static" fill="#666666" sketch:type="MSShapeGroup"></path>
        </g>
        <g id="aside" sketch:type="MSLayerGroup" transform="translate(390.000000, 595.000000)">
            <path d="M9.24,112.83 L9.23,112.81 L6.01,109.44 C5.73,109.16 5.73,108.69 6.01,108.4 L6.26,108.14 C6.53,107.85 6.98,107.85 7.26,108.14 L9.99,111 L12.76,108.14 C13.03,107.85 13.48,107.85 13.76,108.14 L14,108.4 C14.28,108.69 14.28,109.16 14,109.44 L10.76,112.81 L10.74,112.83 L10.49,113.09 C10.36,113.24 10.18,113.31 9.99,113.31 C9.81,113.31 9.63,113.24 9.49,113.09 L9.24,112.83 L9.24,112.83 Z M18.33,110 C18.33,105.41 14.59,101.67 10,101.67 C5.41,101.67 1.67,105.41 1.67,110 C1.67,114.59 5.41,118.33 10,118.33 C14.59,118.33 18.33,114.59 18.33,110 L18.33,110 Z M0,110 C0,104.48 4.48,100 10,100 C15.52,100 20,104.48 20,110 C20,115.52 15.52,120 10,120 C4.48,120 0,115.52 0,110 L0,110 Z" id="active" fill="#FFFFFF" sketch:type="MSShapeGroup" transform="translate(10.000000, 110.000000) scale(-1, -1) rotate(-270.000000) translate(-10.000000, -110.000000) "></path>
            <path d="M9.24,62.83 L9.23,62.81 L6.01,59.44 C5.73,59.16 5.73,58.69 6.01,58.4 L6.26,58.14 C6.53,57.85 6.98,57.85 7.26,58.14 L9.99,61 L12.76,58.14 C13.03,57.85 13.48,57.85 13.76,58.14 L14,58.4 C14.28,58.69 14.28,59.16 14,59.44 L10.76,62.81 L10.74,62.83 L10.49,63.09 C10.36,63.24 10.18,63.31 9.99,63.31 C9.81,63.31 9.63,63.24 9.49,63.09 L9.24,62.83 L9.24,62.83 Z M18.33,60 C18.33,55.41 14.59,51.67 10,51.67 C5.41,51.67 1.67,55.41 1.67,60 C1.67,64.59 5.41,68.33 10,68.33 C14.59,68.33 18.33,64.59 18.33,60 L18.33,60 Z M0,60 C0,54.48 4.48,50 10,50 C15.52,50 20,54.48 20,60 C20,65.52 15.52,70 10,70 C4.48,70 0,65.52 0,60 L0,60 Z" id="static:hover" fill="#44B4A6" sketch:type="MSShapeGroup" transform="translate(10.000000, 60.000000) scale(-1, -1) rotate(-270.000000) translate(-10.000000, -60.000000) "></path>
            <path d="M9.24,12.83 L9.23,12.81 L6.01,9.44 C5.73,9.16 5.73,8.69 6.01,8.4 L6.26,8.14 C6.53,7.85 6.98,7.85 7.26,8.14 L9.99,11 L12.76,8.14 C13.03,7.85 13.48,7.85 13.76,8.14 L14,8.4 C14.28,8.69 14.28,9.16 14,9.44 L10.76,12.81 L10.74,12.83 L10.49,13.09 C10.36,13.24 10.18,13.31 9.99,13.31 C9.81,13.31 9.63,13.24 9.49,13.09 L9.24,12.83 L9.24,12.83 Z M18.33,10 C18.33,5.41 14.59,1.67 10,1.67 C5.41,1.67 1.67,5.41 1.67,10 C1.67,14.59 5.41,18.33 10,18.33 C14.59,18.33 18.33,14.59 18.33,10 L18.33,10 Z M0,10 C0,4.48 4.48,0 10,0 C15.52,0 20,4.48 20,10 C20,15.52 15.52,20 10,20 C4.48,20 0,15.52 0,10 L0,10 Z" id="static" fill="#666666" sketch:type="MSShapeGroup" transform="translate(10.000000, 10.000000) scale(-1, -1) rotate(-270.000000) translate(-10.000000, -10.000000) "></path>
        </g>
        <g id="collapsible" sketch:type="MSLayerGroup" transform="translate(395.000000, 754.000000)" fill="#44B4A6">
            <rect id="active" sketch:type="MSShapeGroup" transform="translate(4.500000, 64.500000) rotate(-270.000000) translate(-4.500000, -64.500000) " x="3" y="60" width="3" height="9"></rect>
            <path d="M3,3 L3,0 L6,0 L6,3 L9,3 L9,6 L6,6 L6,9 L3,9 L3,6 L0,6 L0,3 L3,3 Z" id="static" sketch:type="MSShapeGroup"></path>
        </g>
        <g id="disclaimer" sketch:type="MSLayerGroup" transform="translate(380.000000, 885.000000)" fill="#FFFFFF">
            <path d="M9.5,1.5865 C5.1395,1.5865 1.5865,5.1395 1.5865,9.5 C1.5865,13.8605 5.1395,17.4135 9.5,17.4135 C13.8605,17.4135 17.4135,13.8605 17.4135,9.5 C17.4135,5.1395 13.8605,1.5865 9.5,1.5865 L9.5,1.5865 Z M9.5,19 C4.256,19 -9.94542323e-16,14.744 -3.12351506e-17,9.5 C9.32072022e-16,4.256 4.256,0 9.5,0 C14.744,3.55271368e-15 19,4.256 19,9.5 C19,14.744 14.744,19 9.5,19 L9.5,19 Z" id="circle" sketch:type="MSShapeGroup"></path>
            <path d="M8,8 L8,5 L11,5 L11,8 L14,8 L14,11 L11,11 L11,14 L8,14 L8,11 L5,11 L5,8 L8,8 Z" id="static" sketch:type="MSShapeGroup"></path>
            <path d="M9.5,31.5865 C5.1395,31.5865 1.5865,35.1395 1.5865,39.5 C1.5865,43.8605 5.1395,47.4135 9.5,47.4135 C13.8605,47.4135 17.4135,43.8605 17.4135,39.5 C17.4135,35.1395 13.8605,31.5865 9.5,31.5865 L9.5,31.5865 Z M9.5,49 C4.256,49 -9.94542323e-16,44.744 -3.12351506e-17,39.5 C9.32072022e-16,34.256 4.256,30 9.5,30 C14.744,30 19,34.256 19,39.5 C19,44.744 14.744,49 9.5,49 L9.5,49 Z" id="circle" sketch:type="MSShapeGroup"></path>
            <rect id="minus" sketch:type="MSShapeGroup" x="5" y="38" width="9" height="3"></rect>
        </g>
        <g id="profiles" sketch:type="MSLayerGroup" transform="translate(0.000000, 940.000000)">
            <rect id="Rectangle-20" opacity="0.8" fill="#FFFFFF" sketch:type="MSShapeGroup" x="0" y="0" width="420" height="40"></rect>
            <path d="M406.93,54.6225 L406.9225,54.6075 L404.5075,52.08 C404.2975,51.87 404.2975,51.5175 404.5075,51.3 L404.695,51.105 C404.8975,50.8875 405.235,50.8875 405.445,51.105 L407.4925,53.25 L409.57,51.105 C409.7725,50.8875 410.11,50.8875 410.32,51.105 L410.5,51.3 C410.71,51.5175 410.71,51.87 410.5,52.08 L408.07,54.6075 L408.055,54.6225 L407.8675,54.8175 C407.77,54.93 407.635,54.9825 407.4925,54.9825 C407.3575,54.9825 407.2225,54.93 407.1175,54.8175 L406.93,54.6225 L406.93,54.6225 Z M413.7475,52.5 C413.7475,49.0575 410.9425,46.2525 407.5,46.2525 C404.0575,46.2525 401.2525,49.0575 401.2525,52.5 C401.2525,55.9425 404.0575,58.7475 407.5,58.7475 C410.9425,58.7475 413.7475,55.9425 413.7475,52.5 L413.7475,52.5 Z M400,52.5 C400,48.36 403.36,45 407.5,45 C411.64,45 415,48.36 415,52.5 C415,56.64 411.64,60 407.5,60 C403.36,60 400,56.64 400,52.5 L400,52.5 Z" id="active" fill="#FFFFFF" sketch:type="MSShapeGroup" transform="translate(407.500000, 52.500000) scale(1, -1) translate(-407.500000, -52.500000) "></path>
            <path d="M406.93,14.6225 L406.9225,14.6075 L404.5075,12.08 C404.2975,11.87 404.2975,11.5175 404.5075,11.3 L404.695,11.105 C404.8975,10.8875 405.235,10.8875 405.445,11.105 L407.4925,13.25 L409.57,11.105 C409.7725,10.8875 410.11,10.8875 410.32,11.105 L410.5,11.3 C410.71,11.5175 410.71,11.87 410.5,12.08 L408.07,14.6075 L408.055,14.6225 L407.8675,14.8175 C407.77,14.93 407.635,14.9825 407.4925,14.9825 C407.3575,14.9825 407.2225,14.93 407.1175,14.8175 L406.93,14.6225 L406.93,14.6225 Z M413.7475,12.5 C413.7475,9.0575 410.9425,6.2525 407.5,6.2525 C404.0575,6.2525 401.2525,9.0575 401.2525,12.5 C401.2525,15.9425 404.0575,18.7475 407.5,18.7475 C410.9425,18.7475 413.7475,15.9425 413.7475,12.5 L413.7475,12.5 Z M400,12.5 C400,8.36 403.36,5 407.5,5 C411.64,5 415,8.36 415,12.5 C415,16.64 411.64,20 407.5,20 C403.36,20 400,16.64 400,12.5 L400,12.5 Z" id="static" fill="#442359" sketch:type="MSShapeGroup"></path>
        </g>
        <g id="image-nav" sketch:type="MSLayerGroup" transform="translate(0.000000, 1020.000000)">
            <rect id="Rectangle" opacity="0.8" fill="#FFFFFF" sketch:type="MSShapeGroup" x="0" y="0" width="420" height="40"></rect>
            <path d="M399.24,22.83 L399.23,22.81 L396.01,19.44 C395.73,19.16 395.73,18.69 396.01,18.4 L396.26,18.14 C396.53,17.85 396.98,17.85 397.26,18.14 L399.99,21 L402.76,18.14 C403.03,17.85 403.48,17.85 403.76,18.14 L404,18.4 C404.28,18.69 404.28,19.16 404,19.44 L400.76,22.81 L400.74,22.83 L400.49,23.09 C400.36,23.24 400.18,23.31 399.99,23.31 C399.81,23.31 399.63,23.24 399.49,23.09 L399.24,22.83 L399.24,22.83 Z M408.33,20 C408.33,15.41 404.59,11.67 400,11.67 C395.41,11.67 391.67,15.41 391.67,20 C391.67,24.59 395.41,28.33 400,28.33 C404.59,28.33 408.33,24.59 408.33,20 L408.33,20 Z M390,20 C390,14.48 394.48,10 400,10 C405.52,10 410,14.48 410,20 C410,25.52 405.52,30 400,30 C394.48,30 390,25.52 390,20 L390,20 Z" id="static" fill="#442359" sketch:type="MSShapeGroup" transform="translate(400.000000, 20.000000) scale(-1, -1) rotate(-270.000000) translate(-400.000000, -20.000000) "></path>
        </g>
        <g id="connector-arrow-cta" sketch:type="MSLayerGroup" transform="translate(200.000000, 1110.000000)" fill="#E64E00">
            <rect id="Rectangle-23" sketch:type="MSShapeGroup" x="9" y="34" width="2" height="16"></rect>
            <rect id="Rectangle-23" sketch:type="MSShapeGroup" x="9" y="0" width="2" height="16"></rect>
            <path d="M9.24,27.83 L9.23,27.81 L6.01,24.44 C5.73,24.16 5.73,23.69 6.01,23.4 L6.26,23.14 C6.53,22.85 6.98,22.85 7.26,23.14 L9.99,26 L12.76,23.14 C13.03,22.85 13.48,22.85 13.76,23.14 L14,23.4 C14.28,23.69 14.28,24.16 14,24.44 L10.76,27.81 L10.74,27.83 L10.49,28.09 C10.36,28.24 10.18,28.31 9.99,28.31 C9.81,28.31 9.63,28.24 9.49,28.09 L9.24,27.83 L9.24,27.83 Z M18.33,25 C18.33,20.41 14.59,16.67 10,16.67 C5.41,16.67 1.67,20.41 1.67,25 C1.67,29.59 5.41,33.33 10,33.33 C14.59,33.33 18.33,29.59 18.33,25 L18.33,25 Z M0,25 C0,19.48 4.48,15 10,15 C15.52,15 20,19.48 20,25 C20,30.52 15.52,35 10,35 C4.48,35 0,30.52 0,25 L0,25 Z" id="arrow-down" sketch:type="MSShapeGroup"></path>
        </g>
        <g id="connector-arrow" sketch:type="MSLayerGroup" transform="translate(200.000000, 1060.000000)" fill="#44B4A6">
            <rect id="Rectangle-23" sketch:type="MSShapeGroup" x="9" y="34" width="2" height="16"></rect>
            <rect id="Rectangle-23" sketch:type="MSShapeGroup" x="9" y="0" width="2" height="16"></rect>
            <path d="M9.24,27.83 L9.23,27.81 L6.01,24.44 C5.73,24.16 5.73,23.69 6.01,23.4 L6.26,23.14 C6.53,22.85 6.98,22.85 7.26,23.14 L9.99,26 L12.76,23.14 C13.03,22.85 13.48,22.85 13.76,23.14 L14,23.4 C14.28,23.69 14.28,24.16 14,24.44 L10.76,27.81 L10.74,27.83 L10.49,28.09 C10.36,28.24 10.18,28.31 9.99,28.31 C9.81,28.31 9.63,28.24 9.49,28.09 L9.24,27.83 L9.24,27.83 Z M18.33,25 C18.33,20.41 14.59,16.67 10,16.67 C5.41,16.67 1.67,20.41 1.67,25 C1.67,29.59 5.41,33.33 10,33.33 C14.59,33.33 18.33,29.59 18.33,25 L18.33,25 Z M0,25 C0,19.48 4.48,15 10,15 C15.52,15 20,19.48 20,25 C20,30.52 15.52,35 10,35 C4.48,35 0,30.52 0,25 L0,25 Z" id="arrow-down" sketch:type="MSShapeGroup"></path>
        </g>
    </g>
</svg>